# xmcd CD database file
#
# Track frame offsets:
#	150
#	16155
#	29296
#	40157
#	62712
#	79738
#	90936
#	104170
#	116427
#	140560
#	163779
#
# Disc length: 2364 seconds
#
# Revision: 0
# Processed by: cddbd v1.5.2PL0 Copyright (c) Steve Scherf et al.
# Submitted via: CDex 1.51
#
DISCID=87093a0b
DTITLE=Sultanas, The - Alternative Americana
DYEAR=2003
DGENRE=Country
TTITLE0=First Sermon
TTITLE1=Palm Beach
TTITLE2=Grandson
TTITLE3=Manatee Blood
TTITLE4=Debutante Ball
TTITLE5=Bethel
TTITLE6=Radio Song
TTITLE7=I Want You Alone
TTITLE8=Paint
TTITLE9=Piece of Steel
TTITLE10=The Witch
EXTD=YEAR: 2003
EXTT0=
EXTT1=
EXTT2=
EXTT3=
EXTT4=
EXTT5=
EXTT6=
EXTT7=
EXTT8=
EXTT9=
EXTT10=
PLAYORDER=
